HIERARCHY
ROOT hip
{
	OFFSET 0.000000 0.000000 0.000000 
	CHANNELS 6 Xposition Yposition Zposition Xrotation Zrotation Yrotation
	JOINT abdomen
	{
		OFFSET 0.000000 3.402643 0.000000 
		CHANNELS 3 Xrotation Zrotation Yrotation
		JOINT chest
		{
			OFFSET 0.000000 8.438565 -0.680529 
			CHANNELS 3 Xrotation Zrotation Yrotation
			JOINT neck
			{
				OFFSET 0.000000 10.207942 -0.272212 
				CHANNELS 3 Xrotation Zrotation Yrotation
				JOINT head
				{
					OFFSET 0.000000 3.130431 0.000000 
					CHANNELS 3 Xrotation Zrotation Yrotation
					End Site
					{
						OFFSET 0.000000 3.130435 0.000000 
					}
				}
			}
			JOINT lCollar
			{
				OFFSET 3.470700 6.669187 -0.816635 
				CHANNELS 3 Yrotation Zrotation Xrotation
				JOINT lShldr
				{
					OFFSET 3.198488 0.000000 0.000000 
					CHANNELS 3 Zrotation Yrotation Xrotation
					JOINT lForeArm
					{
						OFFSET 10.139888 0.000000 0.000000 
						CHANNELS 3 Yrotation Zrotation Xrotation
						JOINT lHand
						{
							OFFSET 8.370511 0.000000 0.000000 
							CHANNELS 3 Zrotation Yrotation Xrotation
							End Site
							{
								OFFSET 4.083176 0.000000 0.000000 
							}
						}
					}
				}
			}
			JOINT rCollar
			{
				OFFSET -3.470700 6.669187 -0.816635 
				CHANNELS 3 Yrotation Zrotation Xrotation
				JOINT rShldr
				{
					OFFSET -3.198488 0.000000 0.000000 
					CHANNELS 3 Zrotation Yrotation Xrotation
					JOINT rForeArm
					{
						OFFSET -10.139888 0.000000 0.000000 
						CHANNELS 3 Yrotation Zrotation Xrotation
						JOINT rHand
						{
							OFFSET -8.370511 0.000000 0.000000 
							CHANNELS 3 Zrotation Yrotation Xrotation
							End Site
							{
								OFFSET -4.083176 0.000000 0.000000 
							}
						}
					}
				}
			}
		}
	}
	JOINT lThigh
	{
		OFFSET 5.308129 -1.633274 1.361059 
		CHANNELS 3 Xrotation Zrotation Yrotation
		JOINT lShin
		{
			OFFSET -2.041588 -20.007561 0.000000 
			CHANNELS 3 Xrotation Zrotation Yrotation
			JOINT lFoot
			{
				OFFSET 0.000000 -19.190928 -1.224953 
				CHANNELS 3 Xrotation Yrotation Zrotation
				End Site
				{
					OFFSET 0.000000 -2.449906 4.627600 
				}
			}
		}
	}
	JOINT rThigh
	{
		OFFSET -5.308129 -1.633274 1.361059 
		CHANNELS 3 Xrotation Zrotation Yrotation
		JOINT rShin
		{
			OFFSET 2.041588 -20.007561 0.000000 
			CHANNELS 3 Xrotation Zrotation Yrotation
			JOINT rFoot
			{
				OFFSET 0.000000 -19.190928 -1.224953 
				CHANNELS 3 Xrotation Yrotation Zrotation
				End Site
				{
					OFFSET 0.000000 -2.449906 4.627600 
				}
			}
		}
	}
}
MOTION
Frames: 6
Frame Time: 0.033333
-12.972273 50.541393 98.894691 5.791016 1.748047 -9.843750 20.819410 -20.318266 9.521558 -20.107422 5.166016 10.645411 51.553619 8.070152 2.616707 -74.667969 -2.705078 -40.156250 2.000000 -2.000000 0.000000 -83.603516 31.992186 -23.935545 -56.828358 -1.261334 -2.054943 3.043093 77.256310 12.498182 -2.000000 2.000000 0.000000 71.689453 -30.429688 -31.088930 51.669128 1.499372 -1.943270 53.092014 -50.425629 -39.816002 -11.817220 -1.893522 3.297698 -17.115055 -5.766957 1.581428 13.957351 5.167227 9.550893 22.269638 2.106516 -26.476295 -0.288303 5.799315 0.211575 1.271791 -0.681550 -11.070850 
-13.112062 50.252377 101.176392 5.625000 2.617188 -8.700727 20.128229 -21.210863 10.194304 -20.263672 6.220703 10.458986 51.553619 8.070152 2.616707 -73.867188 -3.457031 -40.976563 2.000000 -2.000000 0.000000 -83.603516 31.992186 -23.935545 -57.003880 -1.260765 -2.045198 2.190588 77.898857 11.127209 -2.000000 2.000000 0.000000 71.689453 -30.429688 -31.088930 51.854397 1.508552 -1.932955 52.601803 -50.969315 -39.094017 -19.112101 -2.557615 2.799790 2.088888 -5.966287 -0.480077 6.732996 5.318857 8.258985 21.947283 0.505306 -27.725569 5.878177 5.749807 0.843090 2.679038 -1.538879 -11.807002 
-13.255436 50.569878 103.463203 4.746094 3.671875 -7.606797 19.682337 -21.966547 10.550393 -20.576172 7.441407 10.244143 51.553619 8.070152 2.616707 -72.138672 -3.808593 -41.015629 2.000000 -2.000000 0.000000 -83.603516 31.992186 -23.935545 -57.003880 -1.260765 -2.045198 3.426630 77.706825 11.597870 -2.000000 2.000000 0.000000 71.689453 -30.429688 -31.088930 52.205959 1.508552 -1.932955 53.090813 -51.620750 -38.822239 -20.870306 -4.169239 1.134924 11.793625 -5.796576 -1.603769 3.028144 6.585876 6.464189 25.525198 0.760787 -27.999315 4.648498 5.788513 0.570777 4.639458 -5.857901 -16.892117 
-13.403669 50.645691 105.752678 3.867188 4.902344 -6.337056 19.830069 -22.136486 10.090885 -20.732422 8.320313 10.000001 51.553619 8.070152 2.616707 -70.000000 -3.720703 -40.391254 2.000000 -2.000000 0.000000 -83.603516 31.992186 -23.935545 -56.828358 -1.261334 -2.054943 5.201305 76.845871 12.151033 -2.000000 2.000000 0.000000 71.689453 -30.429688 -31.088930 52.381741 1.508552 -1.932955 52.605553 -52.174530 -38.091465 -20.238791 -5.906756 -0.544491 17.444508 -5.808610 -2.208731 1.154233 7.475591 5.526804 30.280890 1.922393 -27.243065 0.413321 5.807235 0.078628 8.669641 -11.719514 -21.141127 
-13.557572 50.720245 108.042282 2.822266 5.947265 -4.980469 20.522175 -21.576391 8.858048 -20.732422 8.320313 9.648438 51.553619 8.070152 2.616707 -68.486328 -2.861328 -38.887207 2.000000 -2.000000 0.000000 -83.603516 31.992186 -23.935545 -56.652580 -1.261334 -2.054943 4.828496 76.023247 11.282696 -2.000000 2.000000 0.000000 71.689453 -30.429688 -31.088930 52.569920 1.338189 -2.031130 52.514275 -52.297352 -37.694706 -17.247616 -7.565304 -1.942572 17.978544 -5.807283 -2.295923 2.486171 7.888001 4.084474 31.209200 0.712090 -26.504032 1.652648 5.777290 0.403205 19.517185 -15.531178 -22.746668 
-13.718306 51.118305 110.329536 1.933594 6.650391 -3.631681 21.847069 -20.420074 6.462135 -20.917971 8.164063 9.248046 51.553619 8.070152 2.616707 -68.173828 -1.552734 -36.836201 2.000000 -2.000000 0.000000 -83.603516 31.992186 -23.935545 -56.301029 -1.251585 -2.055512 2.300312 75.320847 8.614928 -2.000000 2.000000 0.000000 71.689453 -30.429688 -31.088930 52.569920 1.338189 -2.031130 52.640427 -52.264454 -37.438232 -12.565738 -8.094903 -1.427641 16.210236 -5.673316 -2.031742 1.107370 5.768353 3.851760 24.330589 -3.302058 -25.106691 12.749577 5.645254 1.227153 21.990400 -19.607124 -20.055044 
